<?xml version="1.0" encoding="UTF-8"?>
<!DOCTYPE svg PUBLIC "-//W3C//DTD SVG 1.1//EN" "http://www.w3.org/Graphics/SVG/1.1/DTD/svg11.dtd">
<!-- Creator: CorelDRAW 2018 (64-Bit) -->
<svg xmlns="http://www.w3.org/2000/svg" xml:space="preserve" width="150mm" height="40mm" version="1.1" style="shape-rendering:geometricPrecision; text-rendering:geometricPrecision; image-rendering:optimizeQuality; fill-rule:evenodd; clip-rule:evenodd"
viewBox="0 0 15000 4000"
 xmlns:xlink="http://www.w3.org/1999/xlink">
 <defs>
  <style type="text/css">
   <![CDATA[
    .str1 {stroke:#3E4095;stroke-width:105.83;stroke-miterlimit:2.61313}
    .str2 {stroke:#FEFEFE;stroke-width:70.56;stroke-miterlimit:2.61313}
    .str0 {stroke:#201E1E;stroke-width:17.64;stroke-miterlimit:2.61313}
    .fil3 {fill:none}
    .fil2 {fill:#F58634}
    .fil4 {fill:#3E4095}
    .fil0 {fill:#F58634;fill-rule:nonzero}
    .fil1 {fill:#3E4095;fill-rule:nonzero}
   ]]>
  </style>
 </defs>
 <g id="Layer_x0020_1">
  <metadata id="CorelCorpID_0Corel-Layer"/>
  <g id="_1530592133680">
   <path class="fil0 str0" d="M6414.62 1850.56c5.65,16.23 8.46,33.07 8.46,50.56 0,11.22 -11.27,136.67 -33.84,376.31 -1.89,18.72 -9.41,29.96 -22.57,33.7 -366.71,9.98 -653.5,11.85 -860.36,5.62l-64.89 -1.88c154.2,-274.59 231.31,-526.72 231.31,-756.37 0,-119.83 -15.98,-211.56 -47.95,-275.22 -28.21,-59.91 -94.96,-138.55 -200.29,-235.9 334.74,-16.21 632.81,-28.7 894.23,-37.44 1.88,24.97 7.52,72.4 16.91,142.29 7.53,61.16 11.3,109.21 11.3,144.15l0 16.86c-22.57,-1.25 -47.95,-11.86 -76.16,-31.82 -39.5,-26.22 -71.46,-44.32 -95.92,-54.3 -48.89,-18.73 -108.14,-28.09 -177.71,-28.09l-56.42 0c-22.57,44.94 -33.85,104.22 -33.85,177.86 0,73.65 7.53,127.31 22.56,161.01 13.64,4.99 27.74,7.49 42.79,7.49 68.17,0 129.76,-15.6 184.77,-46.8 75.68,-42.44 123.17,-66.15 141.99,-71.14 -1.89,36.19 -1.89,81.74 0,136.67 0,76.13 0,121.69 0,136.67 0,1.25 -2.83,24.34 -8.47,69.26 -92.15,-51.17 -180.54,-76.76 -265.17,-76.76 -77.1,0 -115.66,27.47 -115.66,82.38 0,98.6 4.72,164.76 14.11,198.46 24.45,86.12 79.93,129.18 166.44,129.18 116.6,0 224.72,-84.24 324.39,-252.75z"/>
   <path class="fil0 str0" d="M7035.23 2339.21c-35.74,0 -88.4,-5.93 -157.98,-17.79 -69.57,-11.85 -122.24,-17.79 -157.97,-17.79 -45.12,0 -89.32,9.36 -132.57,28.08 9.41,-136.04 11.27,-300.17 5.63,-492.38 65.83,209.68 155.15,331.37 268,365.07 9.39,2.51 30.07,3.76 62.05,3.76 58.3,1.24 110.95,-12.17 157.98,-40.25 47,-28.09 70.52,-64.6 70.52,-109.54 0,-63.64 -54.55,-129.8 -163.61,-198.45 -94.04,-54.91 -188.07,-109.84 -282.1,-164.75 -124.11,-83.62 -186.18,-192.21 -186.18,-325.77 0,-94.85 46.08,-176.61 138.23,-245.25 97.78,-73.65 220.02,-110.47 366.72,-110.47 95.9,0 185.7,27.46 269.38,82.38 83.7,54.92 125.53,114.21 125.53,177.86 0,57.42 -19.74,106.72 -59.24,147.91 -48.9,51.17 -117.53,76.76 -205.92,76.76 -60.17,0 -109.07,-19.97 -146.68,-59.92 -30.1,-33.7 -45.14,-71.76 -45.14,-114.2 0,-31.2 10.35,-58.03 31.03,-80.5 24.44,-27.47 58.3,-41.19 101.56,-41.19 92.15,0 135.4,40.57 129.75,121.69 -3.76,43.68 -41.37,65.53 -112.84,65.53 -22.57,0 -45.12,-2.5 -67.69,-7.49l-5.64 9.36c0,17.48 14.11,31.82 42.32,43.06 28.2,11.24 52.64,14.98 73.33,11.24 86.5,-17.48 129.76,-68.03 129.76,-151.65 0,-43.69 -19.28,-82.69 -57.82,-117.02 -38.56,-34.32 -89.8,-51.49 -153.74,-51.49 -75.23,0 -144.81,23.1 -208.75,69.28 -63.94,46.18 -95.9,92.98 -95.9,140.41 0,67.41 31.02,122.32 93.09,164.76 41.37,28.7 110,58.04 205.92,88 116.59,36.19 190.88,62.39 222.84,78.63 52.66,24.96 99.67,62.4 141.06,112.32 50.76,57.42 75.21,114.84 73.33,172.25 -3.76,152.28 -76.16,262.1 -217.2,329.51 -80.87,38.69 -164.55,58.04 -251.06,58.04z"/>
   <path class="fil1" d="M4604.62 3100.44l-34.4 0 0 172.89c0,22.68 -4.5,39.46 -13.53,50.23 -9.02,10.78 -20.86,16.16 -35.41,16.16 -15.56,0 -27.74,-5.63 -36.31,-16.9 -8.57,-11.28 -12.86,-27.69 -12.86,-49.49l0 -414.06c0,-23.44 4.74,-40.46 14.22,-50.99 9.47,-10.53 24.8,-15.79 45.89,-15.79l159.58 0c21.98,0 40.81,1.01 56.49,3.13 15.67,2.01 29.78,6.27 42.29,12.66 15.23,7.14 28.64,17.29 40.37,30.44 11.62,13.28 20.53,28.57 26.51,46.1 6.08,17.42 9.13,35.96 9.13,55.63 0,40.09 -10.15,72.16 -30.56,96.1 -20.42,24.04 -51.32,40.96 -92.69,50.98 17.36,10.27 34.05,25.56 49.94,45.6 15.8,20.05 30.01,41.35 42.41,64.02 12.4,22.68 22.11,43.1 29.1,61.27 6.88,18.29 10.37,30.82 10.37,37.59 0,7.14 -2.03,14.14 -6.09,21.16 -4.06,6.9 -9.58,12.41 -16.69,16.54 -7.1,4.01 -15.22,6.01 -24.48,6.01 -10.93,0 -20.29,-2.87 -27.74,-8.64 -7.44,-5.76 -13.87,-13.02 -19.28,-21.8 -5.41,-8.77 -12.74,-21.8 -21.98,-38.96l-39.36 -72.67c-14.1,-26.68 -26.73,-46.97 -37.78,-60.88 -11.17,-13.9 -22.44,-23.42 -33.95,-28.57 -11.38,-5.14 -25.82,-7.76 -43.19,-7.76zm56.16 -226.13l-90.56 0 0 147.95 87.85 0c23.58,0 43.42,-2.25 59.55,-6.77 16.01,-4.5 28.3,-12.28 36.76,-23.17 8.46,-10.9 12.74,-25.82 12.74,-44.98 0,-14.9 -3.38,-28.06 -10.26,-39.47 -6.77,-11.39 -16.24,-19.91 -28.41,-25.55 -11.4,-5.39 -33.95,-8.01 -67.67,-8.01zm617.77 2.24l-221.03 0 0 132.18 203.55 0c14.99,0 26.16,3.76 33.49,11.15 7.33,7.51 11.05,17.29 11.05,29.57 0,12.27 -3.61,22.17 -10.83,29.94 -7.32,7.64 -18.61,11.53 -33.71,11.53l-203.55 0 0 153.1 228.58 0c15.45,0 27.07,4 34.84,11.9 7.9,8.01 11.74,18.53 11.74,31.69 0,12.78 -3.84,23.05 -11.74,31.07 -7.77,7.89 -19.39,11.9 -34.84,11.9l-266.59 0c-21.32,0 -36.77,-5.26 -46.12,-15.79 -9.37,-10.51 -13.99,-27.55 -13.99,-50.99l0 -404.53c0,-15.66 2.14,-28.44 6.31,-38.34 4.18,-9.89 10.72,-17.17 19.63,-21.67 8.91,-4.51 20.29,-6.77 34.17,-6.77l259.04 0c15.67,0 27.28,3.89 34.84,11.53 7.55,7.77 11.39,17.79 11.39,30.32 0,12.78 -3.84,22.93 -11.39,30.69 -7.56,7.65 -19.17,11.52 -34.84,11.52zm230.96 -27.18l0 188.67 192.61 -223.12c9.24,-10.78 17.14,-18.66 23.57,-23.8 6.54,-5.14 15.23,-7.77 25.94,-7.77 14.09,0 25.6,4.64 34.28,13.78 8.68,9.14 12.96,20.29 12.96,33.58 0,15.91 -7.32,31.69 -22.1,47.35l-119.2 125.53 137.36 218.75c9.7,15.16 17.03,28.44 21.88,39.71 4.84,11.4 7.22,22.55 7.22,33.32 0,11.91 -4.29,22.31 -12.75,31.2 -8.45,8.77 -19.96,13.15 -34.51,13.15 -13.65,0 -24.81,-3.25 -33.38,-9.76 -8.57,-6.4 -15.78,-15.03 -21.77,-25.82 -5.97,-10.77 -11.27,-20.53 -15.89,-29.31l-115.93 -198.19 -80.29 85.44 0 111.25c0,22.54 -4.63,39.2 -13.87,50.11 -9.26,10.9 -21.21,16.28 -35.64,16.28 -8.46,0 -16.47,-2.5 -24.13,-7.38 -7.79,-4.89 -13.65,-11.4 -17.82,-19.81 -3.16,-6.76 -4.96,-14.78 -5.64,-23.8 -0.68,-9.01 -1.01,-22.16 -1.01,-39.33l0 -400.03c0,-21.93 4.39,-38.47 13.07,-49.48 8.69,-11.03 20.53,-16.54 35.53,-16.54 14.65,0 26.61,5.39 35.75,16.28 9.13,10.91 13.76,27.57 13.76,49.74zm498.11 0l0 391.64 198.94 0c15.78,0 27.96,4.26 36.42,12.89 8.57,8.53 12.74,19.3 12.74,32.21 0,13.27 -4.17,23.92 -12.52,32.19 -8.34,8.15 -20.63,12.28 -36.64,12.28l-236.95 0c-21.31,0 -36.76,-5.26 -46.12,-15.79 -9.36,-10.51 -13.98,-27.55 -13.98,-50.99l0 -414.43c0,-21.93 4.51,-38.47 13.42,-49.48 8.9,-11.03 20.64,-16.54 35.19,-16.54 14.65,0 26.61,5.39 35.74,16.28 9.14,10.91 13.76,27.57 13.76,49.74zm613.59 420.2l-23.12 -67.52 -196.9 0 -23.11 69.02c-9.13,26.94 -16.81,45.11 -23.24,54.51 -6.31,9.38 -16.79,14.14 -31.35,14.14 -12.29,0 -23.22,-5 -32.7,-15.03 -9.47,-10.02 -14.21,-21.42 -14.21,-34.2 0,-7.26 1.13,-14.91 3.27,-22.67 2.25,-7.89 5.86,-18.8 10.94,-32.7l123.94 -349.41c3.49,-10.03 7.78,-22.06 12.75,-36.09 4.95,-14.15 10.14,-25.81 15.78,-35.08 5.64,-9.27 13.08,-16.79 22.22,-22.55 9.13,-5.76 20.4,-8.64 33.82,-8.64 13.65,0 25.05,2.88 34.18,8.64 9.13,5.76 16.58,13.16 22.21,22.18 5.53,9.02 10.27,18.79 14.21,29.18 3.83,10.41 8.68,24.31 14.67,41.61l126.52 347.28c9.93,26.42 14.88,45.6 14.88,57.62 0,12.41 -4.73,23.8 -14.09,34.21 -9.36,10.4 -20.64,15.65 -33.83,15.65 -7.67,0 -14.33,-1.5 -19.85,-4.62 -5.52,-3.01 -10.15,-7.14 -13.87,-12.41 -3.72,-5.26 -7.78,-13.41 -12.07,-24.3 -4.28,-10.91 -8,-20.43 -11.05,-28.82zm-194.31 -149.34l144.8 0 -73.07 -222 -71.73 222zm534.55 129.17l-77.59 -342.78 0 371.47c0,20.54 -4.17,35.95 -12.41,46.22 -8.23,10.28 -19.17,15.41 -32.81,15.41 -13.31,0 -24.02,-5.13 -32.48,-15.27 -8.35,-10.16 -12.52,-25.57 -12.52,-46.36l0 -425.72c0,-23.54 5.53,-39.33 16.46,-47.6 11.06,-8.15 25.94,-12.28 44.66,-12.28l30.45 0c18.27,0 31.46,1.88 39.81,5.51 8.24,3.64 14.32,10.28 18.26,19.8 3.96,9.52 8.46,25.05 13.54,46.61l70.37 294.78 70.37 -294.78c5.08,-21.56 9.58,-37.09 13.54,-46.61 3.94,-9.52 10.02,-16.16 18.37,-19.8 8.24,-3.63 21.55,-5.51 39.81,-5.51l30.34 0c18.72,0 33.6,4.13 44.66,12.28 10.93,8.27 16.46,24.06 16.46,47.6l0 425.72c0,20.54 -4.17,35.95 -12.41,46.22 -8.23,10.28 -19.28,15.41 -33.15,15.41 -13.08,0 -23.68,-5.13 -32.14,-15.41 -8.35,-10.27 -12.52,-25.68 -12.52,-46.22l0 -371.47 -77.58 342.78c-5.08,22.29 -9.25,38.59 -12.41,48.99 -3.16,10.39 -9.13,19.91 -17.7,28.44 -8.57,8.63 -20.41,12.89 -35.64,12.89 -11.51,0 -21.09,-2.75 -29.1,-8.27 -7.88,-5.51 -14.09,-12.52 -18.49,-21.04 -4.4,-8.65 -7.89,-18.04 -10.38,-28.44 -2.48,-10.4 -5.06,-21.29 -7.77,-32.57zm719.26 -372.85l-221.03 0 0 132.18 203.55 0c14.99,0 26.16,3.76 33.49,11.15 7.33,7.51 11.05,17.29 11.05,29.57 0,12.27 -3.61,22.17 -10.83,29.94 -7.32,7.64 -18.61,11.53 -33.71,11.53l-203.55 0 0 153.1 228.58 0c15.45,0 27.07,4 34.84,11.9 7.9,8.01 11.74,18.53 11.74,31.69 0,12.78 -3.84,23.05 -11.74,31.07 -7.77,7.89 -19.39,11.9 -34.84,11.9l-266.59 0c-21.32,0 -36.77,-5.26 -46.12,-15.79 -9.37,-10.51 -13.99,-27.55 -13.99,-50.99l0 -404.53c0,-15.66 2.14,-28.44 6.31,-38.34 4.18,-9.89 10.72,-17.17 19.63,-21.67 8.91,-4.51 20.3,-6.77 34.17,-6.77l259.04 0c15.67,0 27.29,3.89 34.84,11.53 7.55,7.77 11.4,17.79 11.4,30.32 0,12.78 -3.85,22.93 -11.4,30.69 -7.55,7.65 -19.17,11.52 -34.84,11.52zm353.2 30.2c0,-22.8 5.31,-43.59 16.02,-62.27 10.6,-18.79 26.27,-33.58 47.02,-44.59 20.75,-11.03 45,-16.54 72.96,-16.54 27.74,0 51.76,5.75 72.07,17.29 20.3,11.39 35.41,26.56 45.44,45.09 10.04,18.55 15,37.96 15,58.01 0,27.44 -8.12,51.24 -24.47,71.54 -16.24,20.3 -40.25,40.97 -71.95,62.01 11.06,14.54 21.2,28.07 30.68,40.72 9.46,12.79 18.61,24.69 27.4,35.58 8.8,11.03 16.92,20.55 24.13,28.32 3.28,-6.9 8.46,-19.67 15.34,-38.59 6.99,-18.79 13.41,-32.33 19.51,-40.72 6.09,-8.27 14.65,-12.4 25.6,-12.4 10.38,0 19.51,4.13 27.4,12.28 8.01,8.13 11.96,18.16 11.96,29.94 0,10.78 -3.38,25.93 -10.26,45.6 -6.88,19.68 -16.7,41.6 -29.78,65.52 8.23,7.77 21.09,19.67 38.91,35.58 17.7,15.91 28.52,26.82 32.7,32.45 4.06,5.77 6.1,13.41 6.1,23.05 0,12.66 -4.18,23.44 -12.42,32.07 -8.22,8.65 -17.47,13.03 -27.62,13.03 -10.38,0 -20.31,-3.63 -30,-11.02 -9.7,-7.39 -30.34,-25.31 -61.8,-53.99 -14.32,14.91 -29.1,27.18 -44.43,36.71 -15.34,9.64 -31.69,16.66 -49.28,21.3 -17.48,4.62 -36.99,7 -58.64,7 -27.52,0 -52.21,-4.5 -74.09,-13.4 -22,-8.89 -40.15,-20.93 -54.7,-36.08 -14.54,-15.28 -25.38,-32.07 -32.37,-50.49 -7.1,-18.54 -10.6,-37.34 -10.6,-56.38 0,-18.29 2.6,-35.19 7.9,-50.48 5.3,-15.29 12.74,-29.07 22.33,-41.47 9.58,-12.28 21.42,-24.06 35.41,-35.21 13.98,-11.15 30.22,-21.92 48.72,-32.45 -16.58,-23.05 -28.98,-43.47 -37.55,-61.51 -8.46,-17.91 -12.64,-36.45 -12.64,-55.5zm93.49 175.78c-22.44,14.4 -39.24,28.8 -50.41,43.22 -11.16,14.4 -16.69,31.57 -16.69,51.37 0,11.27 2.03,22.04 6.09,32.31 4.06,10.28 10.04,19.8 17.82,28.56 7.89,8.9 16.91,15.55 27.29,20.18 10.37,4.63 21.32,7.01 32.7,7.01 11.28,0 22.1,-2 32.7,-5.89 10.6,-3.88 20.64,-9.52 30.12,-16.66 9.47,-7.26 19.28,-16.16 29.32,-26.93 -19.52,-20.05 -37.22,-39.97 -52.78,-59.64 -15.68,-19.66 -34.4,-44.22 -56.16,-73.53zm33.72 -100.62c22.44,-15.9 38.68,-29.31 48.71,-40.21 10.04,-10.77 15,-23.93 15,-39.33 0,-15.17 -4.96,-27.94 -15,-38.22 -10.03,-10.27 -22.66,-15.41 -37.89,-15.41 -15.22,0 -27.85,5.26 -38.12,15.79 -10.26,10.53 -15.32,22.81 -15.32,37.09 0,7.26 1.91,15.15 5.74,23.68 3.84,8.39 8.69,16.78 14.32,25.05 5.75,8.39 13.31,18.92 22.56,31.56zm692.19 139.08l-89.87 0 0 152.34c0,21.8 -4.62,38.21 -13.87,49.49 -9.25,11.27 -20.98,16.9 -35.07,16.9 -14.67,0 -26.61,-5.51 -35.64,-16.66 -9.02,-11.15 -13.54,-27.55 -13.54,-48.99l0 -414.8c0,-23.93 4.97,-41.09 14.89,-51.37 9.93,-10.27 25.6,-15.41 47.25,-15.41l125.85 0c37.22,0 65.75,3.13 85.83,9.52 19.85,6.15 36.98,16.29 51.42,30.45 14.43,14.28 25.38,31.57 32.82,52.12 7.55,20.55 11.27,43.72 11.27,69.4 0,54.88 -15.21,96.34 -45.55,124.66 -30.46,28.19 -75.68,42.35 -135.79,42.35zm-23.78 -246.68l-66.09 0 0 164.49 66.09 0c23.11,0 42.39,-2.64 57.96,-8.02 15.45,-5.39 27.29,-14.28 35.52,-26.44 8.12,-12.27 12.18,-28.3 12.18,-48.1 0,-23.8 -6.32,-43.1 -18.83,-58.13 -14.1,-15.91 -43.08,-23.8 -86.83,-23.8zm606.26 2.24l-221.03 0 0 132.18 203.55 0c14.99,0 26.16,3.76 33.49,11.15 7.33,7.51 11.06,17.29 11.06,29.57 0,12.27 -3.62,22.17 -10.84,29.94 -7.32,7.64 -18.61,11.53 -33.71,11.53l-203.55 0 0 153.1 228.58 0c15.45,0 27.07,4 34.84,11.9 7.9,8.01 11.74,18.53 11.74,31.69 0,12.78 -3.84,23.05 -11.74,31.07 -7.77,7.89 -19.39,11.9 -34.84,11.9l-266.59 0c-21.32,0 -36.77,-5.26 -46.12,-15.79 -9.36,-10.51 -13.99,-27.55 -13.99,-50.99l0 -404.53c0,-15.66 2.14,-28.44 6.32,-38.34 4.17,-9.89 10.71,-17.17 19.62,-21.67 8.91,-4.51 20.3,-6.77 34.17,-6.77l259.04 0c15.67,0 27.29,3.89 34.84,11.53 7.55,7.77 11.4,17.79 11.4,30.32 0,12.78 -3.85,22.93 -11.4,30.69 -7.55,7.65 -19.17,11.52 -34.84,11.52zm264 223.89l-34.4 0 0 172.89c0,22.68 -4.51,39.46 -13.53,50.23 -9.02,10.78 -20.86,16.16 -35.41,16.16 -15.56,0 -27.75,-5.63 -36.31,-16.9 -8.57,-11.28 -12.86,-27.69 -12.86,-49.49l0 -414.06c0,-23.44 4.74,-40.46 14.21,-50.99 9.48,-10.53 24.81,-15.79 45.9,-15.79l159.57 0c21.99,0 40.82,1.01 56.5,3.13 15.67,2.01 29.77,6.27 42.29,12.66 15.22,7.14 28.64,17.29 40.37,30.44 11.62,13.28 20.53,28.57 26.5,46.1 6.09,17.42 9.14,35.96 9.14,55.63 0,40.09 -10.15,72.16 -30.56,96.1 -20.42,24.04 -51.32,40.96 -92.7,50.98 17.36,10.27 34.06,25.56 49.95,45.6 15.79,20.05 30.01,41.35 42.41,64.02 12.4,22.68 22.11,43.1 29.1,61.27 6.88,18.29 10.37,30.82 10.37,37.59 0,7.14 -2.04,14.14 -6.09,21.16 -4.06,6.9 -9.58,12.41 -16.7,16.54 -7.1,4.01 -15.21,6.01 -24.47,6.01 -10.93,0 -20.3,-2.87 -27.74,-8.64 -7.44,-5.76 -13.87,-13.02 -19.28,-21.8 -5.41,-8.77 -12.74,-21.8 -21.99,-38.96l-39.35 -72.67c-14.11,-26.68 -26.73,-46.97 -37.78,-60.88 -11.17,-13.9 -22.44,-23.42 -33.95,-28.57 -11.39,-5.14 -25.82,-7.76 -43.19,-7.76zm56.15 -226.13l-90.55 0 0 147.95 87.85 0c23.58,0 43.42,-2.25 59.54,-6.77 16.02,-4.5 28.31,-12.28 36.77,-23.17 8.46,-10.9 12.74,-25.82 12.74,-44.98 0,-14.9 -3.38,-28.06 -10.26,-39.47 -6.77,-11.39 -16.24,-19.91 -28.41,-25.55 -11.4,-5.39 -33.95,-8.01 -67.68,-8.01zm702.34 286.39c0,17.04 -3.72,35.58 -11.38,55.5 -7.56,20.04 -19.52,39.59 -35.86,58.76 -16.24,19.16 -37.1,34.83 -62.36,46.73 -25.38,12.02 -54.93,18.03 -88.64,18.03 -25.49,0 -48.72,-2.62 -69.7,-8.01 -20.86,-5.39 -39.92,-13.78 -56.95,-25.19 -17.03,-11.39 -32.81,-26.3 -47.13,-44.97 -12.75,-16.79 -23.69,-35.7 -32.71,-56.62 -9.02,-20.93 -15.78,-43.36 -20.3,-67.04 -4.5,-23.67 -6.77,-48.98 -6.77,-75.54 0,-43.35 5.64,-82.18 17.03,-116.38 11.4,-34.33 27.63,-63.53 48.72,-87.95 21.21,-24.31 45.9,-42.85 74.31,-55.63 28.43,-12.65 58.76,-19.04 90.9,-19.04 39.25,0 74.09,8.64 104.77,26.06 30.55,17.41 54.01,38.83 70.36,64.39 16.25,25.56 24.48,49.74 24.48,72.54 0,12.4 -4.07,23.43 -11.95,32.95 -7.9,9.52 -17.48,14.28 -28.76,14.28 -12.52,0 -22,-3.25 -28.19,-9.9 -6.32,-6.52 -13.31,-17.91 -20.98,-34.07 -12.86,-26.68 -27.86,-46.61 -45.1,-59.88 -17.38,-13.17 -38.69,-19.8 -63.96,-19.8 -40.36,0 -72.4,17.04 -96.29,50.98 -23.91,34.08 -35.87,82.45 -35.87,145.09 0,41.83 5.3,76.66 15.9,104.35 10.49,27.82 25.49,48.61 44.88,62.27 19.4,13.65 42.06,20.55 68.11,20.55 28.2,0 52,-7.77 71.51,-23.3 19.5,-15.55 34.17,-38.34 44.08,-68.53 4.18,-14.16 9.37,-25.69 15.58,-34.59 6.08,-9.01 16.01,-13.39 29.65,-13.39 11.72,0 21.76,4.5 30.11,13.53 8.35,9.01 12.51,20.29 12.51,33.82zm407.34 -284.15l-221.03 0 0 132.18 203.55 0c15,0 26.16,3.76 33.5,11.15 7.33,7.51 11.05,17.29 11.05,29.57 0,12.27 -3.61,22.17 -10.83,29.94 -7.32,7.64 -18.61,11.53 -33.72,11.53l-203.55 0 0 153.1 228.59 0c15.45,0 27.07,4 34.84,11.9 7.9,8.01 11.74,18.53 11.74,31.69 0,12.78 -3.84,23.05 -11.74,31.07 -7.77,7.89 -19.39,11.9 -34.84,11.9l-266.6 0c-21.31,0 -36.76,-5.26 -46.11,-15.79 -9.37,-10.51 -14,-27.55 -14,-50.99l0 -404.53c0,-15.66 2.15,-28.44 6.32,-38.34 4.18,-9.89 10.71,-17.17 19.63,-21.67 8.91,-4.51 20.29,-6.77 34.16,-6.77l259.04 0c15.68,0 27.29,3.89 34.85,11.53 7.55,7.77 11.39,17.79 11.39,30.32 0,12.78 -3.84,22.93 -11.39,30.69 -7.56,7.65 -19.17,11.52 -34.85,11.52zm446.69 5.89l-107.02 0 0 390.89c0,22.42 -4.5,39.2 -13.52,50.11 -9.03,10.9 -20.76,16.28 -35.08,16.28 -14.43,0 -26.28,-5.51 -35.41,-16.52 -9.14,-11.03 -13.76,-27.69 -13.76,-49.87l0 -390.89 -107.02 0c-16.8,0 -29.2,-4.13 -37.33,-12.27 -8.23,-8.27 -12.29,-19.05 -12.29,-32.58 0,-13.9 4.28,-24.93 12.74,-32.94 8.46,-8.15 20.75,-12.16 36.88,-12.16l311.81 0c17.03,0 29.55,4.13 37.89,12.53 8.24,8.26 12.42,19.17 12.42,32.57 0,13.53 -4.29,24.31 -12.64,32.58 -8.35,8.14 -20.86,12.27 -37.67,12.27zm375.64 387.13l-23.11 -67.52 -196.91 0 -23.11 69.02c-9.13,26.94 -16.81,45.11 -23.23,54.51 -6.32,9.38 -16.8,14.14 -31.36,14.14 -12.29,0 -23.22,-5 -32.69,-15.03 -9.48,-10.02 -14.22,-21.42 -14.22,-34.2 0,-7.26 1.13,-14.91 3.27,-22.67 2.25,-7.89 5.87,-18.8 10.95,-32.7l123.93 -349.41c3.49,-10.03 7.78,-22.06 12.75,-36.09 4.96,-14.15 10.15,-25.81 15.78,-35.08 5.64,-9.27 13.08,-16.79 22.22,-22.55 9.13,-5.76 20.41,-8.64 33.82,-8.64 13.65,0 25.05,2.88 34.18,8.64 9.13,5.76 16.58,13.16 22.21,22.18 5.53,9.02 10.27,18.79 14.21,29.18 3.83,10.41 8.68,24.31 14.67,41.61l126.52 347.28c9.93,26.42 14.89,45.6 14.89,57.62 0,12.41 -4.74,23.8 -14.09,34.21 -9.37,10.4 -20.64,15.65 -33.84,15.65 -7.67,0 -14.32,-1.5 -19.85,-4.62 -5.52,-3.01 -10.14,-7.14 -13.87,-12.41 -3.72,-5.26 -7.78,-13.41 -12.07,-24.3 -4.28,-10.91 -8,-20.43 -11.05,-28.82zm-194.31 -149.34l144.8 0 -73.07 -222 -71.73 222zm469.82 -270.86l0 188.67 192.61 -223.12c9.25,-10.78 17.14,-18.66 23.57,-23.8 6.54,-5.14 15.23,-7.77 25.94,-7.77 14.09,0 25.6,4.64 34.28,13.78 8.68,9.14 12.96,20.29 12.96,33.58 0,15.91 -7.32,31.69 -22.09,47.35l-119.21 125.53 137.36 218.75c9.7,15.16 17.03,28.44 21.88,39.71 4.84,11.4 7.22,22.55 7.22,33.32 0,11.91 -4.29,22.31 -12.74,31.2 -8.46,8.77 -19.97,13.15 -34.51,13.15 -13.65,0 -24.82,-3.25 -33.39,-9.76 -8.57,-6.4 -15.78,-15.03 -21.76,-25.82 -5.98,-10.77 -11.28,-20.53 -15.9,-29.31l-115.93 -198.19 -80.29 85.44 0 111.25c0,22.54 -4.63,39.2 -13.87,50.11 -9.26,10.9 -21.21,16.28 -35.64,16.28 -8.46,0 -16.47,-2.5 -24.13,-7.38 -7.79,-4.89 -13.65,-11.4 -17.82,-19.81 -3.16,-6.76 -4.96,-14.78 -5.64,-23.8 -0.68,-9.01 -1.01,-22.16 -1.01,-39.33l0 -400.03c0,-21.93 4.39,-38.47 13.07,-49.48 8.69,-11.03 20.53,-16.54 35.53,-16.54 14.65,0 26.61,5.39 35.75,16.28 9.13,10.91 13.76,27.57 13.76,49.74zm711.92 420.2l-23.11 -67.52 -196.9 0 -23.12 69.02c-9.13,26.94 -16.8,45.11 -23.23,54.51 -6.32,9.38 -16.8,14.14 -31.35,14.14 -12.29,0 -23.23,-5 -32.7,-15.03 -9.48,-10.02 -14.22,-21.42 -14.22,-34.2 0,-7.26 1.13,-14.91 3.27,-22.67 2.26,-7.89 5.87,-18.8 10.95,-32.7l123.94 -349.41c3.49,-10.03 7.77,-22.06 12.74,-36.09 4.96,-14.15 10.15,-25.81 15.78,-35.08 5.64,-9.27 13.09,-16.79 22.22,-22.55 9.13,-5.76 20.41,-8.64 33.83,-8.64 13.64,0 25.04,2.88 34.17,8.64 9.14,5.76 16.58,13.16 22.21,22.18 5.53,9.02 10.27,18.79 14.21,29.18 3.84,10.41 8.68,24.31 14.67,41.61l126.52 347.28c9.93,26.42 14.89,45.6 14.89,57.62 0,12.41 -4.74,23.8 -14.09,34.21 -9.37,10.4 -20.64,15.65 -33.84,15.65 -7.66,0 -14.32,-1.5 -19.84,-4.62 -5.53,-3.01 -10.15,-7.14 -13.87,-12.41 -3.73,-5.26 -7.79,-13.41 -12.07,-24.3 -4.29,-10.91 -8.01,-20.43 -11.06,-28.82zm-194.3 -149.34l144.79 0 -73.07 -222 -71.72 222zm498.91 -271.49l188.55 317.09 0 -320.1c0,-20.79 4.05,-36.32 12.06,-46.73 8.01,-10.39 18.84,-15.65 32.6,-15.65 14.09,0 25.14,5.13 33.37,15.53 8.13,10.41 12.18,26.06 12.18,46.85l0 423.22c0,47.23 -17.59,70.77 -52.88,70.77 -8.81,0 -16.69,-1.37 -23.8,-4.26 -6.99,-2.74 -13.64,-7.26 -19.85,-13.39 -6.09,-6.03 -11.84,-13.29 -17.14,-21.44 -5.3,-8.13 -10.6,-16.53 -15.9,-25.17l-183.93 -313.34 0 315.22c0,20.55 -4.29,36.08 -12.86,46.6 -8.57,10.53 -19.62,15.78 -33.04,15.78 -13.87,0 -25.04,-5.25 -33.38,-15.9 -8.34,-10.65 -12.52,-26.19 -12.52,-46.48l0 -415.07c0,-17.66 1.8,-31.44 5.3,-41.46 4.18,-11.03 11.06,-20.05 20.75,-27.07 9.7,-6.88 20.19,-10.39 31.47,-10.39 8.79,0 16.23,1.62 22.55,4.76 6.31,3.13 11.85,7.51 16.57,12.91 4.74,5.38 9.48,12.26 14.45,20.91 4.96,8.52 10.15,17.41 15.45,26.81z"/>
   <polygon class="fil2 str0" points="5220.71,2387.14 12459.04,2387.14 12447.41,2509.1 5209.07,2509.1 "/>
   <path class="fil0 str0" d="M4693.33 2025.84c8.22,49.66 19.53,108.82 33.91,177.47 22.62,51.12 64.77,76.68 126.43,76.68 98.68,0 191.19,-56.96 277.52,-170.89 22.62,-35.06 59.63,-85.45 111.01,-151.18 20.57,51.12 18.51,115.4 -6.16,192.81 -8.22,24.83 -15.42,82.52 -21.59,173.08 -8.22,106.63 -13.36,168.71 -15.42,186.24 -113.06,-1.46 -262.1,-0.74 -447.12,2.18 -222.01,2.92 -370.02,4.38 -444.03,4.38 -45.22,0 -95.59,-3.64 -151.1,-10.96 176.8,-267.29 265.2,-553.57 265.2,-858.84 0,-134.38 -16.45,-244.66 -49.35,-330.83 -41.11,-111.02 -117.17,-205.95 -228.18,-284.83 98.68,0 306.3,-9.49 622.88,-28.48 -16.44,0 -35.96,56.23 -58.58,168.7 -20.57,105.16 -30.84,194.99 -30.84,269.49 0,352.01 5.14,547.01 15.42,584.98z"/>
   <polygon class="fil3 str1" points="2294.5,569.26 3187.56,1960.36 4080.61,3351.45 2294.5,3351.45 508.4,3351.45 1401.45,1960.36 "/>
   <polygon class="fil4" points="2294.5,837.67 3015.24,2011.1 3735.98,3184.51 2294.5,3184.51 853.02,3184.51 1573.76,2011.1 "/>
   <path class="fil0 str2" d="M2478.81 3019.77l-761.43 0 -46.56 0c-43.47,0 -75.67,-5.01 -96.63,-15.04 -20.97,-10.02 -31.43,-25.07 -31.43,-45.12 0,-13.89 5.81,-25.85 17.45,-35.87 11.64,-10.03 29.11,-17.36 52.39,-21.99 9.32,-1.54 18.25,-3.47 26.78,-5.78 8.54,-2.31 15.91,-4.24 22.12,-5.79 24.84,-7.71 40.37,-16.19 46.58,-25.45 6.2,-9.25 9.3,-25.46 9.3,-48.6l0 -1133.92c0,-21.6 -3.1,-37.02 -9.3,-46.29 -6.21,-9.25 -21.74,-17.74 -46.58,-25.45 -6.21,-1.54 -13.58,-3.48 -22.12,-5.78 -8.53,-2.32 -17.46,-4.25 -26.78,-5.79 -23.28,-4.63 -40.75,-11.95 -52.39,-21.99 -11.64,-10.02 -17.45,-21.98 -17.45,-35.86 0,-21.6 10.86,-37.42 32.59,-47.44 21.73,-10.04 53.56,-15.04 95.47,-15.04l46.56 -2.32 763.75 0 55.88 0c52.79,3.09 91.21,9.64 115.27,19.67 24.06,10.03 36.09,25.85 36.09,47.44 0,15.43 -6.98,28.15 -20.96,38.19 -13.96,10.02 -34.14,17.35 -60.54,21.97 -7.76,1.55 -15.51,3.09 -23.28,4.64 -7.76,1.53 -14.75,2.31 -20.96,2.31 -37.26,7.71 -60.54,16.98 -69.85,27.77 -9.32,10.8 -13.97,29.31 -13.97,55.54l0 1325.99zm125.74 0l0 -127.27c45.01,-3.09 80.72,-7.33 107.1,-12.73 26.4,-5.4 51.23,-12.73 74.52,-21.99 1.55,0 2.71,-0.38 3.49,-1.15 0.78,-0.77 1.94,-1.15 3.49,-1.15 57.44,-23.15 109.45,-58.24 156.01,-105.3 46.58,-47.05 83.84,-101.44 111.77,-163.15 6.21,-13.89 12.42,-25.84 18.63,-35.87 6.21,-10.03 11.64,-18.9 16.3,-26.61 10.87,-13.89 22.89,-23.52 36.09,-28.93 13.2,-5.4 29.11,-8.1 47.74,-8.1 31.04,0 52.39,5.79 64.03,17.36 11.64,11.57 17.47,30.46 17.47,56.69l0 458.2 -656.64 0z"/>
   <path class="fil0 str0" d="M10335.67 2269.94c5.64,24.96 -66.77,39.94 -217.22,44.93 -28.2,1.25 -124.1,1.88 -287.71,1.88 -75.24,0 -124.13,-6.87 -146.7,-20.6 50.78,-19.98 92.63,-52.43 125.53,-97.35 32.92,-44.94 49.37,-88 49.37,-129.19 0,-67.4 -43.25,-101.1 -129.76,-101.1 7.52,0 -18.8,2.5 -78.99,7.49 -15.04,19.96 -42.31,74.89 -81.79,164.76 -31.98,76.13 -68.66,131.67 -110.02,166.63 -58.31,51.17 -139.16,76.75 -242.6,76.75 -116.59,0 -207.81,-49.92 -273.62,-149.78 -54.54,-78.62 -81.81,-162.26 -81.81,-250.87 0,-64.9 31.04,-127.94 93.09,-189.1 69.58,-69.89 152.34,-104.84 248.23,-104.84 67.72,0 123.19,25.59 166.44,76.76 37.62,43.69 56.42,88.62 56.42,134.81 0,39.93 -19.74,84.87 -59.24,134.79 -47.01,59.91 -98.73,89.87 -155.15,89.87 -58.3,0 -103.44,-17.47 -135.4,-52.43 -30.09,-29.96 -45.14,-64.9 -45.14,-104.84 0,-29.95 13.16,-62.41 39.5,-97.35 30.09,-41.19 65.83,-61.79 107.2,-61.79 37.59,0 68.63,16.22 93.09,48.69 18.79,27.45 28.2,55.53 28.2,84.24 0,69.9 -52.66,99.85 -157.97,89.87 28.21,18.72 55.47,28.08 81.8,28.08 39.5,0 69.59,-19.35 90.28,-58.04 15.04,-27.46 22.57,-57.42 22.57,-89.87 0,-91.11 -47.97,-136.67 -143.87,-136.67 -65.83,0 -118.49,25.59 -157.97,76.77 -31.98,41.18 -47.95,84.87 -47.95,131.05 0,48.68 15.04,88.61 45.12,119.82 35.73,38.7 88.39,58.03 157.97,58.03 139.17,0 242.6,-105.46 310.31,-316.4 43.23,-138.53 64.86,-285.19 64.86,-439.97 0,-187.21 -94.01,-302.05 -282.08,-344.48 41.37,-13.73 131.65,-23.72 270.81,-29.95 118.47,-4.99 214.38,-6.25 287.73,-3.75l155.15 5.61c-13.17,111.09 -19.75,184.1 -19.75,219.06 0,122.31 36.66,298.3 110.01,527.95 80.87,255.87 164.55,419.39 251.06,490.53zm-535.97 -488.65c0,-27.45 -10.33,-69.89 -31.02,-127.31 -22.57,-66.15 -46.08,-104.22 -70.54,-114.2 0,26.2 -5.63,65.52 -16.91,117.94 -11.29,52.43 -16.93,92.36 -16.93,119.83 0,16.22 3.77,26.83 11.29,31.82 7.53,5 40.43,7.49 98.73,7.49 16.91,0 25.38,-11.85 25.38,-35.57z"/>
   <path class="fil0 str0" d="M10959.07 1468.63c-33.85,0 -62.05,-8.11 -84.63,-24.34 -31.97,-68.64 -47.95,-141.66 -47.95,-219.05 0,-33.69 32.91,-50.55 98.73,-50.55 54.53,0 100.62,18.1 138.21,54.3 31.98,32.45 47.97,68.02 47.97,106.71 0,31.21 -13.16,59.91 -39.5,86.13 -30.09,31.2 -67.69,46.8 -112.83,46.8zm713.68 496.14c-5.63,-31.2 -27.74,-60.86 -66.28,-88.94 -38.56,-28.08 -79.47,-42.12 -122.72,-42.12 -60.17,0 -108.12,21.84 -143.85,65.53 -30.1,36.19 -44.2,74.89 -42.32,116.07 1.87,31.21 11.28,61.16 28.21,89.87 22.55,34.95 50.76,53.05 84.63,54.3 86.51,2.49 133.51,-29.34 141.04,-95.49 7.52,-56.16 -7.53,-96.11 -45.14,-119.82 -9.39,-6.24 -19.75,-12.48 -31.02,-18.72 -11.3,-6.24 -31.04,-7.49 -59.25,-3.75 5.64,-23.71 23.52,-35.56 53.59,-35.56 45.14,0 79.93,21.21 104.39,63.65 18.79,32.45 28.2,66.15 28.2,101.1 0,36.19 -11.29,68.64 -33.84,97.35 -30.1,36.2 -70.54,54.3 -121.3,54.3 -88.4,0 -143.87,-36.82 -166.44,-110.47 -7.52,-22.46 -11.29,-80.5 -11.29,-174.11 0,-47.43 -16.92,-96.11 -50.76,-146.03 -28.21,-43.69 -63.02,-79.25 -104.39,-106.72 37.62,-8.74 75.24,-17.47 112.84,-26.21 56.43,-13.73 99.67,-35.58 129.76,-65.52 39.5,-41.19 59.24,-101.73 59.24,-181.61 0,-109.84 -37.61,-197.83 -112.83,-263.98 -82.76,-74.89 -203.11,-112.33 -361.08,-112.33 -41.37,0 -103.89,2.18 -187.59,6.55 -83.68,4.37 -145.27,6.55 -184.76,6.55 -54.54,0 -103.44,-2.49 -146.69,-7.48 107.19,98.6 160.8,229.65 160.8,393.15 0,202.21 -7.52,353.23 -22.57,453.09 -24.46,167.24 -75.24,313.9 -152.34,439.97 80.88,9.97 127.88,14.96 141.04,14.96 276.46,0 427.84,-11.22 454.18,-33.69 -67.71,-32.46 -117.55,-119.82 -149.51,-262.11 -20.68,-96.11 -31.03,-199.71 -31.03,-310.78 0,-37.45 13.16,-56.17 39.5,-56.17l14.1 0c84.63,0 126.94,92.98 126.94,278.96 0,19.96 0,43.05 0,69.27 -1.89,26.2 -2.83,41.18 -2.83,44.92 0,74.9 26.32,137.93 78.99,189.1 60.18,58.66 145.75,88 256.7,88 67.69,0 131.17,-15.29 190.41,-45.87 59.23,-30.58 100.13,-67.71 122.7,-111.4 31.98,-57.42 39.49,-126.68 22.57,-207.81z"/>
   <path class="fil0 str0" d="M12363.87 1197.16c9.41,4.99 12.24,14.98 8.46,29.96 -9.4,27.45 -22.57,68.65 -39.48,123.56 -16.93,72.4 -25.4,183.48 -25.4,333.25 0,34.95 6.58,132.93 19.74,293.94 3.78,34.95 19.76,91.12 47.97,168.5 28.21,72.39 42.31,126.69 42.31,162.88 0,11.24 -26.8,15.61 -80.39,13.1 -53.6,-2.49 -121.77,-1.86 -204.51,1.88 -103.45,3.74 -170.19,5.62 -200.29,5.62 -5.64,0 -16.93,-5.62 -33.84,-16.86 112.83,-198.45 169.24,-396.91 169.24,-595.36 0,-178.48 -45.14,-350.1 -135.4,-514.85 31.96,-13.73 104.37,-20.59 217.2,-20.59 110.97,0 182.43,4.99 214.39,14.97zm45.14 -207.82c-58.3,9.99 -108.14,32.46 -149.51,67.4 -28.21,29.96 -57.36,60.54 -87.45,91.75 -41.37,-81.13 -122.24,-131.68 -242.6,-151.65 54.55,-18.72 102.5,-43.69 143.87,-74.89 47.03,-36.2 71.47,-71.14 73.35,-104.84 18.8,2.49 35.73,13.72 50.78,33.7 26.32,31.2 44.18,50.54 53.59,58.03 52.66,43.68 105.31,70.52 157.97,80.5zm-211.56 44.94c24.44,-7.49 36.67,-21.22 36.67,-41.18 0,-16.23 -8,-30.9 -23.99,-44.01 -15.97,-13.1 -33.37,-17.15 -52.18,-12.17 -30.1,7.5 -45.13,22.48 -45.13,44.94 0,36.19 21.63,54.29 64.87,54.29 7.52,0 14.1,-0.62 19.76,-1.87z"/>
   <path class="fil1" d="M13299.48 2232.61l-15.8 -89.79 -266.63 0 -47.16 91.79c-18.55,35.81 -33.1,59.97 -43.97,72.47 -10.7,12.49 -26,18.82 -45.7,18.82 -16.64,0 -30.3,-6.66 -40.83,-19.99 -10.52,-13.33 -14.33,-28.48 -11.39,-45.48 1.67,-9.66 4.95,-19.82 9.63,-30.15 4.88,-10.5 12.26,-24.99 22.32,-43.48l248.05 -464.63c7.03,-13.32 15.6,-29.32 25.54,-47.98 9.97,-18.82 19.67,-34.32 29.44,-46.65 9.76,-12.33 21.56,-22.31 35.26,-29.98 13.69,-7.67 29.62,-11.5 47.8,-11.5 18.47,0 33.23,3.83 44.28,11.5 11.04,7.67 19.42,17.49 24.99,29.48 5.42,12 9.58,24.99 12.54,38.82 2.81,13.82 6.18,32.33 10.3,55.3l91.61 461.8c7.36,35.16 9.69,60.64 6.93,76.64 -2.85,16.49 -11.89,31.65 -26.95,45.48 -15.06,13.83 -31.54,20.82 -49.41,20.82 -10.38,0 -19.04,-2 -25.8,-6.16 -6.8,-4 -12.12,-9.5 -15.95,-16.49 -3.83,-7 -7.46,-17.83 -10.76,-32.33 -3.3,-14.49 -6.15,-27.15 -8.34,-38.31zm-228.83 -198.58l196.07 0 -47.98 -295.2 -148.09 295.2zm791.19 215.74l2.27 -13.16c-19.88,20.49 -38.95,37.15 -57.19,49.98 -18.1,12.82 -37.21,22.65 -56.98,29.32 -19.79,6.66 -40.67,9.99 -62.82,9.99 -29.16,0 -55.01,-6.82 -77.57,-20.32 -22.57,-13.49 -40.94,-32.66 -54.77,-57.81 -13.86,-24.99 -22.51,-54.48 -26.14,-88.29 -3.48,-33.83 -1.88,-70.47 4.91,-109.79 14.38,-83.29 44.23,-148.27 89.51,-194.75 45.29,-46.47 98.49,-69.8 159.26,-69.8 35.28,0 63.75,6.67 85.61,19.83 21.86,13.15 42.05,33.32 60.21,60.8l33.97 -196.75c4.72,-27.32 13.32,-47.97 25.65,-61.96 12.51,-14 27.92,-21 46.4,-21 18.47,0 31.54,6.51 39.42,19.33 7.7,12.83 9.46,31.82 5.15,56.81l-101.45 587.57c-4.38,25.32 -13.02,44.48 -25.89,57.14 -13.03,12.66 -28.02,18.99 -44.97,18.99 -16.66,0 -29.4,-6.66 -37.96,-19.83 -8.57,-13.15 -10.85,-31.81 -6.62,-56.3zm-206.42 -195.75c-6.24,36.15 -6.36,66.97 -0.51,92.29 5.86,25.33 16.75,44.49 32.41,57.31 15.65,12.83 34.08,19.32 55.3,19.32 21.38,0 42.14,-6.16 61.95,-18.31 19.82,-12.18 37.24,-30.82 52.15,-56.15 14.88,-25.16 25.66,-56.64 32.19,-94.46 6.1,-35.31 6.05,-65.97 -0.09,-91.46 -6.13,-25.48 -17.12,-44.98 -32.82,-58.47 -15.68,-13.5 -34.35,-20.32 -55.73,-20.32 -22.45,0 -43.63,6.82 -63.59,20.65 -19.94,13.82 -36.99,33.82 -51.22,59.65 -14.08,25.81 -24.14,55.81 -30.04,89.95zm584.76 -186.91l46.69 302.7 160.98 -315.86c12.77,-25.33 24.12,-43.32 33.9,-53.99 9.91,-10.49 23.05,-15.82 39.54,-15.82 15.42,0 27.74,5.67 36.59,17.16 8.89,11.33 12.11,24.49 9.53,39.48 -1.01,5.83 -3.11,12.66 -6.44,20.49 -3.35,7.84 -6.75,15.16 -10.53,22 -3.77,6.83 -8.03,14.66 -12.73,23.32l-172.06 317.36c-4.77,8.99 -11.06,20.66 -18.67,34.64 -7.6,14 -15.6,25.83 -23.74,35.83 -8.14,10 -17.25,17.65 -27.67,23.15 -10.26,5.49 -22.21,8.33 -35.65,8.33 -17.25,0 -30.4,-4.33 -39.13,-12.99 -8.77,-8.49 -14.76,-17.99 -17.87,-28.32 -3.28,-10.17 -8.02,-30.49 -14.42,-60.64l-62.17 -313.86c-1.24,-7.83 -2.79,-15.66 -4.2,-23.5 -1.55,-7.83 -2.48,-15.65 -3.06,-23.81 -0.57,-8.17 -0.28,-15.17 0.72,-20.99 1.59,-9.17 5.74,-18.16 12.33,-27.17 6.59,-8.99 14.88,-16.31 24.87,-21.98 9.84,-5.67 20.1,-8.5 30.48,-8.5 20.31,0 33.12,6.33 38.57,18.99 5.45,12.66 10.17,33.98 14.14,63.98zm343.18 458.79c-18.47,0 -33.23,-6.49 -44.43,-19.48 -11.19,-13.01 -14.75,-31.33 -10.73,-54.65 3.46,-20 12.81,-36.99 28.11,-51.32 15.3,-14.33 32.41,-21.48 51.2,-21.48 18.79,0 33.61,6.99 44.45,21.15 10.84,14.16 14.44,31.32 10.93,51.65 -3.96,22.99 -13.67,41.15 -29.22,54.3 -15.57,13.17 -32.29,19.83 -50.31,19.83z"/>
   <path class="fil0 str0" d="M7808.61 1661.47c-90.28,-1.26 -157.03,-39.31 -200.28,-114.21 -31.98,-54.91 -47.95,-116.7 -47.95,-185.34 0,-78.64 39.48,-154.78 118.47,-228.41 86.51,-81.13 186.18,-121.69 299.01,-121.69 62.06,0 154.68,4.67 277.87,14.03 123.16,9.36 215.79,14.05 277.84,14.05 116.61,0 191.82,-11.24 225.67,-33.7 15.04,24.97 22.57,53.05 22.57,84.25 0,32.45 -1.89,80.81 -5.64,145.09 -3.75,64.28 -5.64,112.64 -5.64,145.1 -28.21,-23.71 -56.41,-48.05 -84.62,-73.02 -47.03,-37.44 -108.14,-56.16 -183.37,-56.16 -24.44,0 -43.26,5.62 -56.42,16.84 -11.27,49.93 -16.91,151.02 -16.91,303.3 0,177.24 3.75,293.31 11.27,348.24 18.8,144.78 67.71,275.2 146.7,391.29 -173.02,7.48 -303.73,11.22 -392.1,11.22 -133.54,0 -230.38,-6.23 -290.57,-18.72 28.21,-26.2 68.66,-65.21 121.3,-117.32 75.23,-81.13 112.83,-284.26 112.83,-610.34l0 -182.85c0,-94.55 -13.16,-141.66 -39.48,-141.66l-132.57 0c-188.07,0 -282.1,71.45 -282.1,214.68 0,28.39 13.16,55.54 39.5,81.75 30.07,29.64 65.81,44.31 107.19,44.31 37.6,0 65.81,-14.98 84.63,-44.94 -16.93,3.75 -32.92,5.62 -47.97,5.62 -43.24,0 -77.1,-13.73 -101.54,-41.19 -20.68,-22.46 -31.04,-49.3 -31.04,-80.5 0,-32.45 9.41,-60.53 28.21,-84.25 24.46,-29.96 58.3,-44.94 101.56,-44.94 105.31,0 157.97,50.56 157.97,151.65 0,36.21 -11.29,73.65 -33.86,112.33 -37.6,64.91 -97.79,96.74 -180.53,95.49z"/>
  </g>
 </g>
</svg>
